<?xml version="1.0" encoding="UTF-8"?>
<!DOCTYPE svg PUBLIC "-//W3C//DTD SVG 1.1//EN" "http://www.w3.org/Graphics/SVG/1.1/DTD/svg11.dtd">
<!-- Creator: CorelDRAW 2020 (64-Bit) -->
<svg xmlns="http://www.w3.org/2000/svg" xml:space="preserve" width="130px" height="53px" version="1.1" style="shape-rendering:geometricPrecision; text-rendering:geometricPrecision; image-rendering:optimizeQuality; fill-rule:evenodd; clip-rule:evenodd"
viewBox="0 0 130 52.94"
 xmlns:xlink="http://www.w3.org/1999/xlink"
 xmlns:xodm="http://www.corel.com/coreldraw/odm/2003">
 <defs>
  <style type="text/css">
   <![CDATA[
    .fil1 {fill:#FEFEFE}
    .fil4 {fill:#3F119B;fill-rule:nonzero}
    .fil2 {fill:#AD384D;fill-rule:nonzero}
    .fil0 {fill:#FD4B68;fill-rule:nonzero}
    .fil3 {fill:#FEFEFE;fill-rule:nonzero}
   ]]>
  </style>
 </defs>
 <g id="Layer_x0020_1">
  <metadata id="CorelCorpID_0Corel-Layer"/>
  <g id="_3148360310512">
   <g>
    <path class="fil0" d="M0 31.06l1.68 -22.34c4.43,1.65 13.83,1.61 15.73,0.2 -0.37,1.76 -0.76,3.52 -0.96,5.31 -0.25,2.31 -0.45,4.01 -0.6,5.35 -0.51,0.42 -0.56,1.24 -0.62,1.74 -0.1,1 -0.45,1.89 0.21,2.53 -0.05,1.05 -0.06,2.09 -0.05,3.6 0.04,2.5 1.2,4.85 3.65,6.86 0.37,0.31 0.76,0.6 1.17,0.88 -6.86,0 -16.96,-1.61 -20.21,-4.13l0 0z"/>
    <path class="fil1" d="M15.85 19.59l-4.43 -3.64c-0.23,-0.18 -0.64,-0.24 -0.81,-0.03l-0.89 1.03c-0.18,0.2 -0.22,0.45 0,0.63l4.77 3.91 -4.5 3.36c-0.22,0.16 -0.13,0.39 0.01,0.64l0.73 1.25c0.14,0.24 0.44,0.3 0.66,0.14l4.05 -3.03c0.05,-0.84 0.13,-1.69 0.24,-2.77 0.05,-0.45 0.1,-0.95 0.17,-1.49l0 0z"/>
    <g>
     <path class="fil0" d="M45.46 51.25c0.82,0 0.93,-0.62 1.02,-1.22l6.74 -44.79c-0.86,-0.32 -1.69,-0.62 -2.48,-0.9l-6.17 45.78c-0.08,0.57 0.27,1.13 0.89,1.13z"/>
     <path class="fil0" d="M30.04 27.36c-4.28,-0.67 -8.7,-0.85 -12.76,-0.13 0.07,-4.25 0.41,-8.49 1.05,-12.71 0.64,-4.32 1.6,-8.6 2.87,-12.79 3.92,-1.51 8.17,-1.93 12.4,-1.65 5.24,0.34 10.45,1.75 14.95,3.47l-3.87 28.07c-3.9,-1.69 -9.15,-3.39 -14.64,-4.26z"/>
     <path class="fil2" d="M25.54 28.73c0.02,1.73 0.09,3.78 0.28,7.16 -1.62,-0.41 -3.8,-1.55 -5.58,-3.01 -1.41,-1.16 -2.54,-2.49 -2.87,-3.77 2.6,-0.48 5.38,-0.57 8.17,-0.38z"/>
     <path class="fil3" d="M32.82 5.99c-2.37,-0.25 -4.62,0.76 -5.36,2.71 -0.71,1.87 0,3.24 1.53,3.52 1.5,0.26 2.32,-0.86 2.45,-1.73 -0.95,-0.06 -1.66,-0.71 -1.22,-2.18 0.34,-1.05 1.12,-1.69 2.21,-1.5 1.53,0.26 1.85,1.57 1.21,3.63 -0.84,2.59 -3.68,2.89 -3.8,6.57 0.35,0.03 0.7,0.07 1.23,0.13 0.46,-3.09 5.6,-2.49 6.44,-6.4 0.61,-2.93 -1.91,-4.45 -4.69,-4.75l0 0zm-2.29 12.2c-1.34,-0.14 -2.38,0.68 -2.55,1.85 -0.18,1.16 0.59,2.17 1.94,2.31 1.34,0.15 2.39,-0.67 2.57,-1.83 0.17,-1.17 -0.61,-2.18 -1.96,-2.33z"/>
    </g>
   </g>
   <g>
    <g>
     <path class="fil4" d="M69.53 12.11c-0.16,0.25 -0.35,0.38 -0.61,0.32 -0.37,-0.09 -0.38,-0.62 -0.38,-1.35l0 -8.43c0,0 -0.15,0 -0.41,0 -0.92,0.81 -2.47,1.18 -3.34,1.18 0,0.16 0,0.24 0,0.42 1.15,0 1.3,0.79 1.3,1.74l0 1.03c-0.4,-0.39 -0.94,-0.7 -1.61,-0.79 -2.3,-0.32 -3.93,1.44 -3.93,3.58 0,2.13 1.65,3.57 3.93,3.57 0.74,0 1.4,-0.29 1.88,-0.71 0.32,0.5 0.9,0.71 1.68,0.71 0.85,0 1.38,-0.35 1.74,-1.12l-0.25 -0.15 0 0zm-4.52 0.68c-0.92,0.15 -1.65,-0.93 -1.97,-2.73 -0.31,-1.81 0,-3.07 0.91,-3.24 0.92,-0.15 1.65,0.93 1.97,2.73 0.32,1.82 0,3.07 -0.91,3.24zm11.95 -1.92c-1.33,1.43 -4.25,1.19 -4.62,-0.76 0,0 4.68,-0.79 4.68,-0.79 0.08,-1.99 -1.29,-3.09 -3.31,-3.09 -2.27,0 -4.11,1.43 -3.89,3.86 0.15,1.82 1.66,3.29 3.94,3.29 1.87,0 2.96,-1.17 3.46,-2.3 0,-0.02 -0.26,-0.21 -0.26,-0.21l0 0zm-3.53 -4.09c1.05,-0.09 1.38,0.86 1.31,2.32l-2.49 0.42c-0.18,-1.44 0.23,-2.65 1.18,-2.74zm9.08 -0.39c0,0 0,0.19 0,0.4 0.79,0 1.13,0.15 0.79,0.99l-1.23 3.09 -1.32 -3.09c-0.28,-0.74 -0.08,-0.99 0.6,-0.99 0,-0.12 0,-0.4 0,-0.4l-4.43 0c0,0 0,0.19 0,0.4 0.75,0 0.95,0.37 1.25,0.99l2.47 5.46 1.02 0 2.19 -5.46c0.24,-0.61 0.56,-0.99 1.32,-0.99 0,-0.12 0,-0.4 0,-0.4l-2.66 0 0 0zm9.38 4.48c-1.33,1.43 -4.25,1.19 -4.61,-0.76 0,0 4.67,-0.79 4.67,-0.79 0.08,-1.99 -1.28,-3.09 -3.31,-3.09 -2.28,0 -4.11,1.43 -3.9,3.86 0.16,1.82 1.67,3.29 3.96,3.29 1.86,0 2.95,-1.17 3.45,-2.3 0,-0.02 -0.26,-0.21 -0.26,-0.21l0 0zm-3.53 -4.09c1.05,-0.09 1.38,0.86 1.31,2.32l-2.49 0.42c-0.18,-1.44 0.23,-2.65 1.18,-2.74zm7.54 4.31l0 -8.44c0,0 -0.15,0 -0.4,0 -0.93,0.81 -2.47,1.18 -3.35,1.18 0,0.16 0,0.24 0,0.42 1.15,0 1.3,0.79 1.3,1.74l0 5.1c0,0.96 -0.15,1.75 -1.3,1.75 0,0.18 0,0.4 0,0.4l5.06 0c0,0 0,-0.22 0,-0.4 -1.17,0 -1.31,-0.79 -1.31,-1.75zm5.1 -4.86c-2.29,0 -3.94,1.44 -3.94,3.58 0,2.13 1.65,3.57 3.94,3.57 2.27,0 3.92,-1.44 3.92,-3.57 0,-2.14 -1.65,-3.58 -3.92,-3.58zm0.51 6.56c-0.91,0.15 -1.63,-0.93 -1.95,-2.73 -0.32,-1.81 -0.02,-3.07 0.91,-3.24 0.92,-0.16 1.65,0.91 1.96,2.73 0.32,1.82 0,3.07 -0.92,3.24zm8.75 -6.56c-0.66,0.09 -1.21,0.4 -1.6,0.79l0 -0.79c0,0 -0.15,0 -0.41,0 -0.91,0.81 -2.46,1.19 -3.33,1.19 0,0.16 0,0.22 0,0.4 1.15,0 1.3,0.79 1.3,1.74l0 5.11c0,0.95 -0.15,1.74 -1.3,1.74 0,0.18 0,0.42 0,0.42l5.28 0c0,0 0,-0.24 0,-0.42 -1.15,0 -1.54,-0.79 -1.54,-1.74l0 -2.22c0.42,0.46 0.98,0.83 1.74,0.93 2.3,0.34 3.8,-1.44 3.8,-3.57 0,-2.14 -1.64,-3.9 -3.94,-3.58l0 0zm0.53 6.62c-0.92,0.15 -1.63,-0.92 -1.97,-2.72 -0.31,-1.82 0,-3.08 0.93,-3.24 0.92,-0.17 1.63,0.9 1.95,2.72 0.32,1.82 0.02,3.08 -0.91,3.24zm11.04 -1.98c-1.33,1.43 -4.25,1.19 -4.62,-0.76 0,0 4.68,-0.79 4.68,-0.79 0.08,-1.99 -1.28,-3.09 -3.31,-3.09 -2.28,0 -4.1,1.43 -3.9,3.86 0.15,1.82 1.67,3.29 3.96,3.29 1.86,0 2.95,-1.17 3.45,-2.3 0,-0.02 -0.26,-0.21 -0.26,-0.21l0 0zm-3.52 -4.09c1.04,-0.09 1.37,0.86 1.29,2.32l-2.47 0.42c-0.19,-1.44 0.22,-2.65 1.18,-2.74zm10.17 -0.55c-1.12,-0.18 -1.85,0.44 -2.33,1.36l0 -1.36c0,0 -0.16,0 -0.41,0 -0.93,0.81 -2.45,1.19 -3.35,1.19 0,0.16 0,0.22 0,0.4 1.17,0 1.3,0.79 1.3,1.74l0 1.53c0,0.96 -0.13,1.75 -1.3,1.75 0,0.18 0,0.4 0,0.4l5 0c0,0 0,-0.09 0,-0.4 -1.15,0 -1.24,-0.79 -1.24,-1.75l0 -2.51c0.06,-0.68 0.61,-1.06 1.29,-0.85 0.59,0.2 0.59,0.85 0.43,1.38 0.51,0.18 1.43,0.05 1.79,-0.83 0.34,-0.86 -0.09,-1.87 -1.18,-2.05l0 0z"/>
     <path class="fil4" d="M73.8 27.86c0,0 -0.11,-0.91 -0.42,-3.13 -0.4,-2.79 -1.6,-3.99 -3.83,-3.99 -1.8,0 -2.87,0.8 -3.53,1.73l0 -1.73c0,0 -0.22,0 -0.6,0 -1.33,1.18 -3.59,1.73 -4.88,1.73 0,0.25 0,0.34 0,0.6 1.69,0 1.91,1.15 1.91,2.55l0 2.24c0,1.4 -0.22,2.55 -1.91,2.55 0,0.27 0,0.6 0,0.6l7.3 0c0,0 0,-0.14 0,-0.6 -1.69,0 -1.82,-1.15 -1.82,-2.55l0 -2.68c0,-1.48 0.56,-2.66 1.89,-2.66 1.52,0 1.68,1.19 1.88,2.5 0.13,0.82 0.44,2.84 0.44,2.84 0.16,1.35 0.13,2.55 -1.55,2.55 0,0.27 0,0.6 0,0.6l7.11 0c0,0 0,-0.14 0,-0.6 -1.68,0 -1.81,-1.24 -1.99,-2.55zm14.14 1.99c-0.5,0.25 -0.99,0.23 -1.24,-0.06 -0.22,-0.29 -0.35,-1.18 -0.49,-1.95 0,0 -0.11,-0.89 -0.42,-3.13 -0.39,-2.79 -1.86,-3.97 -5.4,-3.97 -1.27,0 -3.2,0.36 -3.73,1.8 -0.31,0.78 -0.06,1.4 0.51,1.68 0.62,0.29 1.53,0.23 2.06,-0.73 -0.86,-0.71 -0.22,-2.08 1.18,-1.97 1.1,0 1.51,1.17 1.7,2.31 0.25,1.53 -1.04,1.08 -3.12,1.5 -2.61,0.53 -3.44,2.04 -3.12,3.66 0.3,1.62 2.04,2.22 3.87,2.22 1.11,0 2.35,-0.27 3.13,-1.46 0.33,1.06 1.73,1.46 2.92,1.46 1.25,0 1.93,-0.4 2.33,-0.87 -0.06,-0.22 -0.09,-0.24 -0.18,-0.49l0 0zm-6.62 -0.01c-0.82,0.21 -1.82,-0.41 -1.97,-1.43 -0.16,-1.13 0.51,-1.95 1.46,-2.24 1.13,-0.31 1.37,-0.42 1.55,-0.77 0.09,0.55 0.17,1.37 0.24,2.17 0.07,1.07 -0.22,2.02 -1.28,2.27zm13.3 -1.29c-0.34,0.55 -0.8,0.82 -1.37,0.73 -0.54,-0.11 -0.92,-0.4 -0.92,-1.44l0 -6.01 2.36 0 0 -0.86 -2.36 0 0 -3.75c0,0 -0.31,0 -0.68,0 -0.47,2.39 -2.44,3.64 -4.63,3.75 0,0.26 0,0.86 0,0.86l1.72 0c0,0.69 0,5.83 0,5.83 0,2.37 1.45,3.55 3.22,3.55 1.64,0 2.5,-1.07 3.08,-2.44l-0.42 -0.22 0 0zm6.12 -0.69l0 -7.12c0,0 -0.2,0 -0.6,0 -1.33,1.2 -3.59,1.73 -4.88,1.73 0,0.25 0,0.34 0,0.6 1.69,0 1.91,1.15 1.91,2.55l0 2.24c0,1.4 -0.22,2.55 -1.91,2.55 0,0.27 0,0.6 0,0.6l7.32 0c0,0 0,-0.14 0,-0.6 -1.71,0 -1.84,-1.15 -1.84,-2.55l0 0zm-2.15 -8.16c1.22,0 2.21,-0.95 2.21,-2.1 0,-1.15 -0.99,-2.11 -2.21,-2.11 -1.22,0 -2.22,0.96 -2.22,2.11 0,1.15 1,2.1 2.22,2.1zm9.75 1.04c-3.34,0 -5.76,2.11 -5.76,5.24 0,3.12 2.42,5.23 5.76,5.23 3.33,0 5.74,-2.11 5.74,-5.23 0,-3.13 -2.41,-5.24 -5.74,-5.24zm0.76 9.6c-1.34,0.22 -2.4,-1.35 -2.86,-3.99 -0.47,-2.65 -0.02,-4.5 1.33,-4.74 1.35,-0.24 2.41,1.33 2.88,3.99 0.46,2.66 0,4.5 -1.35,4.74zm18.68 -2.48c0,0 -0.11,-0.91 -0.42,-3.13 -0.4,-2.79 -1.59,-3.99 -3.83,-3.99 -1.8,0 -2.86,0.8 -3.53,1.73l0 -1.73c0,0 -0.22,0 -0.59,0 -1.34,1.18 -3.6,1.73 -4.88,1.73 0,0.25 0,0.34 0,0.6 1.68,0 1.91,1.15 1.91,2.55l0 2.24c0,1.4 -0.23,2.55 -1.91,2.55 0,0.27 0,0.6 0,0.6l7.29 0c0,0 0,-0.14 0,-0.6 -1.68,0 -1.82,-1.15 -1.82,-2.55l0 -2.68c0,-1.48 0.56,-2.66 1.89,-2.66 1.53,0 1.68,1.19 1.88,2.5 0.13,0.82 0.44,2.84 0.44,2.84 0.16,1.35 0.14,2.55 -1.54,2.55 0,0.27 0,0.6 0,0.6l7.11 0c0,0 0,-0.14 0,-0.6 -1.69,0 -1.82,-1.24 -1.99,-2.55l-0.01 0z"/>
    </g>
    <path class="fil0" d="M67.36 40.63c-1.55,-0.85 -2.53,-1.25 -2.42,-2.12 0.07,-0.63 0.63,-0.9 1.41,-0.78 1.16,0.13 1.68,0.82 2.06,2.63l0.54 0 -0.23 -3.46c0,0 -0.25,0 -0.38,0 -0.2,0.85 -0.54,0.18 -1.99,0 -1.97,-0.23 -4.18,0.27 -4.45,2.43 -0.24,2.15 1.77,3.13 3.24,3.89 1.57,0.81 2.57,1.17 2.42,2.33 -0.09,0.71 -1.05,1.16 -2.26,1.09 -0.89,-0.06 -1.92,-0.33 -2.05,-0.94 -0.14,-0.67 0.31,-1.13 0.95,-1.09 -0.01,-0.89 -0.49,-1.72 -1.63,-1.88 -1.36,-0.2 -2.39,1.05 -2.05,2.42 0.35,1.47 2.86,2.21 4.71,2.3 2.28,0.13 5.12,-0.4 5.57,-2.6 0.51,-2.5 -1.88,-3.35 -3.44,-4.22l0 0zm16.9 4.94c-0.22,0.38 -0.52,0.58 -0.89,0.47 -0.54,-0.16 -0.57,-0.92 -0.57,-1.99l0 -7.15c0,0 -0.22,0 -0.6,0 -1.36,1.18 -3.37,1.74 -4.67,1.74 0,0.25 0,0.34 0,0.6 1.7,0 1.66,1.17 1.66,2.58l0 1.16c0,1.47 -0.45,2.66 -1.82,2.66 -1.52,0 -1.9,-1.19 -1.9,-2.5l0 -6.24c0,0 -0.22,0 -0.6,0 -1.34,1.18 -3.35,1.74 -4.65,1.74 0,0.25 0,0.34 0,0.6 1.7,0 1.65,1.17 1.65,2.58l0 1.67c0.03,2.8 1.64,3.96 3.87,3.96 1.81,0 2.88,-0.83 3.54,-1.79 0.28,1.25 1.29,1.79 2.79,1.79 1.25,0 2.03,-0.52 2.57,-1.66l-0.38 -0.22 0 0zm9.59 -8.67c-1.66,-0.27 -2.73,0.65 -3.44,2.01l0 -2.01c0,0 -0.22,0 -0.61,0 -1.36,1.18 -3.62,1.74 -4.94,1.74 0,0.25 0,0.34 0,0.6 1.73,0 1.92,1.17 1.92,2.58l0 2.26c0,1.4 -0.19,2.56 -1.92,2.56 0,0.27 0,0.61 0,0.61l7.38 0c0,0 0,-0.14 0,-0.61 -1.7,0 -1.83,-1.16 -1.83,-2.56l0 -3.72c0.09,-1 0.89,-1.56 1.9,-1.25 0.87,0.29 0.87,1.25 0.64,2.04 0.74,0.26 2.1,0.06 2.64,-1.24 0.49,-1.27 -0.13,-2.74 -1.74,-3.01l0 0zm10.17 0.22c0,0 0,0.29 0,0.61 1.18,0 1.68,0.22 1.18,1.45l-1.83 4.56 -1.94 -4.56c-0.41,-1.1 -0.11,-1.45 0.89,-1.45 0,-0.18 0,-0.61 0,-0.61l-6.55 0c0,0 0,0.29 0,0.61 1.12,0 1.41,0.53 1.86,1.45l3.64 8.07 1.5 0 3.24 -8.07c0.36,-0.9 0.83,-1.45 1.94,-1.45 0,-0.18 0,-0.61 0,-0.61l-3.93 0 0 0zm13.86 6.62c-1.96,2.12 -6.28,1.77 -6.81,-1.12 0,0 6.9,-1.16 6.9,-1.16 0.11,-2.95 -1.9,-4.56 -4.89,-4.56 -3.36,0 -6.06,2.1 -5.75,5.7 0.23,2.68 2.46,4.85 5.84,4.85 2.75,0 4.35,-1.72 5.09,-3.4 0,-0.02 -0.38,-0.31 -0.38,-0.31l0 0zm-5.21 -6.04c1.55,-0.13 2.04,1.28 1.92,3.42l-3.66 0.63c-0.27,-2.12 0.33,-3.91 1.74,-4.05zm13.4 -0.58c0,0 0,0.29 0,0.61 1.16,0 1.67,0.22 1.18,1.45l-1.72 4.29 -1.99 -4.29c-0.45,-1.1 -0.18,-1.45 0.8,-1.45 0,-0.18 0,-0.61 0,-0.61l-6.53 0c0,0 0,0.29 0,0.61 0.97,0 1.42,0.4 1.79,1.09l4.39 8.63c-0.74,1.79 -1.59,2.5 -2.58,2.61 -0.91,0.07 -1.58,-0.27 -1.98,-0.98 -0.72,0.34 -1.66,1.41 -1.17,2.73 0.32,0.8 1.19,1.13 1.97,1.13 2.42,0 3.67,-3.34 4.58,-5.69l3.24 -8.07c0.36,-0.9 0.83,-1.45 1.95,-1.45 0,-0.18 0,-0.61 0,-0.61l-3.93 0 0 0z"/>
   </g>
  </g>
 </g>
</svg>
