<?xml version="1.0" encoding="utf-8"?>
<!-- Generator: Adobe Illustrator 23.1.0, SVG Export Plug-In . SVG Version: 6.00 Build 0)  -->
<svg version="1.1" id="Layer_1" xmlns="http://www.w3.org/2000/svg" xmlns:xlink="http://www.w3.org/1999/xlink" x="0px" y="0px"
	 viewBox="0 0 2000 2000" style="enable-background:new 0 0 2000 2000;" xml:space="preserve">
<style type="text/css">
	.st0{opacity:0.08;}
	.st1{fill:#010101;}
	.st2{fill:#3E803D;}
	.st3{fill:#FFFFFF;}
	.st4{fill:#ED2224;}
	.st5{fill:none;}
	.st6{font-family:'Arial-BoldMT';}
	.st7{font-size:114.1419px;}
	.st8{font-size:138.6551px;}
</style>
<g>
	<g>
		<g class="st0">
			<path class="st1" d="M1954.34,976.57c2.03,63.47-63.17,121.32-73.52,181.37c-10.7,62.07,30.92,138.44,8.34,195.54
				c-23.01,58.19-105.86,85.39-139.8,136.99c-34.22,52.03-26.44,138.79-70.3,182.65c-43.86,43.86-130.62,36.08-182.65,70.3
				c-51.6,33.94-78.79,116.78-136.98,139.8c-57.09,22.58-133.46-19.04-195.53-8.34c-60.05,10.35-117.9,75.54-181.37,73.52
				c-58.05-1.85-107.07-69.65-161.98-82.05c-56.27-12.7-129.62,27.2-181.51,4.52c-52.6-22.99-73.14-104.12-120.09-136.23
				c-47.22-32.29-130.2-22.02-170.54-62.36c-40.34-40.34-30.07-123.32-62.36-170.54c-32.11-46.95-113.23-67.49-136.22-120.09
				c-22.68-51.89,17.22-125.24,4.52-181.51c-12.4-54.91-80.2-103.93-82.05-161.97c-2.03-63.47,63.17-121.32,73.52-181.37
				c10.7-62.07-30.92-138.44-8.34-195.54c23.01-58.19,105.86-85.39,139.8-136.99c34.22-52.03,26.44-138.79,70.3-182.66
				c43.86-43.86,130.62-36.08,182.65-70.3c51.6-33.94,78.79-116.78,136.99-139.8c57.09-22.58,133.46,19.04,195.53,8.34
				c60.06-10.35,117.9-75.54,181.37-73.52c58.05,1.85,107.07,69.65,161.98,82.05c56.27,12.7,129.62-27.2,181.51-4.52
				c52.6,22.99,73.14,104.12,120.09,136.23c47.22,32.29,130.2,22.02,170.54,62.36c40.34,40.34,30.07,123.32,62.36,170.54
				c32.11,46.95,113.23,67.49,136.22,120.09c22.68,51.89-17.22,125.24-4.52,181.51C1884.68,869.5,1952.48,918.52,1954.34,976.57z"/>
		</g>
		<g>
			<path class="st2" d="M1923.74,945.98c2.03,63.47-63.17,121.32-73.52,181.37c-10.7,62.07,30.92,138.44,8.34,195.54
				c-23.01,58.19-105.86,85.39-139.8,136.99c-34.22,52.03-26.44,138.79-70.3,182.65c-43.86,43.86-130.62,36.08-182.65,70.3
				c-51.6,33.94-78.79,116.78-136.98,139.8c-57.09,22.58-133.46-19.04-195.53-8.34c-60.05,10.35-117.9,75.54-181.37,73.52
				c-58.05-1.85-107.07-69.65-161.98-82.05c-56.27-12.7-129.62,27.2-181.51,4.52c-52.6-22.99-73.14-104.12-120.09-136.23
				c-47.22-32.29-130.2-22.02-170.54-62.36c-40.34-40.34-30.07-123.32-62.36-170.54c-32.11-46.95-113.23-67.49-136.22-120.09
				c-22.68-51.89,17.22-125.24,4.52-181.51c-12.4-54.91-80.2-103.93-82.05-161.97c-2.03-63.47,63.17-121.32,73.52-181.37
				c10.7-62.07-30.92-138.44-8.34-195.54c23.01-58.19,105.86-85.39,139.8-136.99c34.22-52.03,26.44-138.79,70.3-182.66
				c43.86-43.86,130.62-36.08,182.65-70.3c51.6-33.94,78.79-116.78,136.99-139.8c57.09-22.58,133.46,19.04,195.53,8.34
				c60.06-10.35,117.9-75.54,181.37-73.52c58.05,1.85,107.07,69.65,161.98,82.05c56.27,12.7,129.62-27.2,181.51-4.52
				c52.6,22.99,73.14,104.12,120.09,136.23c47.22,32.29,130.2,22.02,170.54,62.36c40.34,40.34,30.07,123.32,62.36,170.54
				c32.11,46.95,113.23,67.49,136.22,120.09c22.68,51.89-17.22,125.24-4.52,181.51C1854.09,838.91,1921.89,887.93,1923.74,945.98z"
				/>
		</g>
	</g>
	<g>
		
			<ellipse transform="matrix(0.7071 -0.7071 0.7071 0.7071 -408.6139 983.3614)" class="st3" cx="982.72" cy="984.92" rx="814.07" ry="814.07"/>
	</g>
	<path class="st4" d="M565.63,1008.67c0,283.84,230.16,514,514,514c107.12,0,206.69-32.8,289.03-88.95
		c-104.88,95.09-244.08,153.01-396.86,153.01c-326.66,0-591.51-264.85-591.51-591.51c0-326.78,264.85-591.63,591.51-591.63
		c205.98,0,387.42,105.35,493.36,265.08c-94.14-106.76-231.93-174.01-385.53-174.01C795.79,494.66,565.63,724.83,565.63,1008.67z"/>
	<g>
		<path d="M1093.63,680.23c17.3-1.34,40.68,0.67,63.84-6.12c20.87-6.12,43.66,8.63,50.94,29.71c3.32,9.59,6.59,19.2,10.02,28.75
			c4.94,13.77,13.71,24.21,27.52,29.62c10.71,4.2,10.57,9.9,6.5,19.99c-14.39,35.71-38.74,63.21-66.84,88.54
			c-17.3,15.6-17.8,37.93-17.87,59.52c-0.01,2.33,1.64,5.98,3.49,6.79c17.64,7.71,31.72,23.64,54.13,20.48
			c21.81-3.08,29.41,4.68,29.52,26.19c0.09,17.58-0.74,34.25-8.27,51.46c-10.83,24.75,21.29,59.39,48.25,54.61
			c24.11-4.27,29.97-0.03,25.74,23.98c-3.41,19.33,6.65,31.67,17.07,44.12c7.09,8.47,13.1,16.61,14.17,27.94
			c1.42,14.92,10.63,26.68,17.14,39.48c4.18,8.21,5.81,14.53-1.21,23.09c-6.56,8-9.5,18.69,5.75,23.56
			c5.86,1.87,7.79,8.65,2.26,10.75c-17.37,6.59-27.77,25.89-48.04,26.29c-12.78,0.25-26.88,1.35-29.14-16.95
			c-0.87-7.05-5.49-7.14-10.53-5.74c-15.41,4.28-30.76,8.79-46.09,13.32c-1.47,0.43-3.58,1.35-3.94,2.5
			c-4.59,14.74-16.42,13.51-28.39,14.39c-12.86,0.94-22.19-3.07-31.58-11.69c-9.14-8.38-22.06-3.64-32.33-2.34
			c-22.91,2.91-45.88,2.55-68.73,3.13c-7.61,0.2-5.71,2.52-6.05,6.01c-3.29,34.18-3.27,34.09-37.21,34.79
			c-7.42,0.15-14.84-0.13-22.19,2.5c-8.71,3.11-14.38,6.8-15.28,17.61c-1.42,16.93-8.66,19.14-23.38,11.44
			c-7.26-3.79-16.06-4.23-19.83-13.31c-0.92-2.22-3.42-1.3-5.53-0.07c-20.61,12.08-34.7-4.14-47.41-14.2
			c-16.52-13.08-22.56-34.29-27.53-54.67c-1.09-4.46,1.26-8.21,4.57-11.39c3.57-3.43,2.69-7.49-1.03-9.43
			c-17.24-9-6.29-17.72,0.4-25.77c3.31-3.98,10.15-6.59,5.06-12.6c-5.22-6.15-11.23-16.44-20.77-10.02
			c-14.03,9.44-25.37,4.4-36.47-3.44c-7.7-5.44-15.29-3.39-23.01-2.29c-4.26,0.6-8.74,2.89-11.55-1.77
			c-2.94-4.88,1.93-7.91,4.35-10.99c3.27-4.15,6.83-8.94,11.39-11.04c20.72-9.56,30.87-28.52,42.74-46.06
			c0.3-0.44,0.91-0.85,0.93-1.28c0.98-27.93,26.25-43.24,34.83-66.78c7.43-20.41,10.24-42.32-1.16-63.14
			c-0.26-0.47-0.45-0.99-0.77-1.41c-26.36-35.05-35.27-74.4-30.99-117.79c2.01-20.42-2.63-40.61,2.08-61.89
			c5.58-25.17,22.74-43.3,31.22-66.19c1.73-4.66,7.79-4.98,12.67-5.56c28.43-3.41,52.89-12.88,72.05-36.55
			c9.99-12.35,23.76-23.15,39.5-29.49c3.66-1.48,6.67-3.58,8.56-6.9c6.82-11.97,17.93-13.98,30.32-13.75
			C1060.85,680.42,1074.24,680.23,1093.63,680.23z M985.87,1355.32c2.67-1.63,4.87-2.33,6.09-3.82
			c9.51-11.69,19.06-17.41,36.45-13.92c30.02,6.03,30.83,3.65,32.58-26.4c0.16-2.67,0.28-5.36,0.67-8c1.45-9.85,4.87-15.86,17-12.28
			c20.89,6.17,41.87,5.93,63.83,3.42c16.36-1.87,35.14-6.74,50.77,10.22c7.15,7.76,23.11,7.94,32.44-4.42
			c3.01-3.99,6.22-7.49,11.32-8.29c20.67-3.24,40.36-10.13,60.21-16.33c7.91-2.47,11.36,0.5,11.63,7.94
			c0.27,7.68-0.48,15.95,10.06,16.94c9.57,0.89,17.19-0.55,25.5-8.68c10.4-10.18,15.01-18.75,9.56-32.38
			c-1.04-2.61-0.53-7.03,1.1-9.32c10.87-15.32,3.39-27.8-4.59-41.13c-3.99-6.67-5.54-14.98-7.27-22.76
			c-1.43-6.44-3.3-12.34-7.9-17.21c-16.77-17.72-28.25-37.33-23.91-63.19c1.4-8.35-1.9-10.65-11.1-8.88
			c-32.29,6.19-60.56-16.24-63.92-49.46c-0.54-5.34-1.67-10.69,1.7-15.55c9.14-13.2,8.82-28.2,8.56-43.3
			c-0.38-22.17-3.61-24.43-25.79-22.52c-24.37,2.11-40.97-15.33-60-26.34c-1.77-1.02-2.87-4.89-2.69-7.32
			c1.9-26.04,2.33-52.27,25.07-71.52c20.34-17.22,39.31-35.87,51.25-60.59c8.04-16.64,14.34-29.69-8.6-41.91
			c-14.39-7.66-17.85-26.98-22.6-43.07c-8.48-28.74-26.71-38.39-55.68-30.71c-5.11,1.35-10.52,1.97-15.82,2.1
			c-26.74,0.67-53.48,1.1-80.22,1.53c-6.97,0.11-15.93-1.68-19.94,3.71c-10.74,14.42-28.81,18.07-40.8,30.36
			c-25.66,26.31-53.28,49.5-92.23,52.73c-3.28,0.27-6.97,0.99-8.17,4.23c-7.92,21.38-24.39,38.35-28.73,62.01
			c-3.86,21.03,0.13,41.76-2.17,62.32c-4.57,40.92,7.12,76.31,29.29,110.41c18.83,28.96,14.56,62.52-4.77,87.23
			c-17.04,21.79-20.95,49.13-39.09,69.94c-7.54,8.65-12.59,18.8-23.91,23.62c-7.14,3.04-13.7,7.04-16.25,14.09
			c22.76,7.29,44.91,8.37,67.57,8.95c21.14,0.55,30.3,26.88,16.8,42.78c-3.79,4.46-0.76,5.5,1.28,8.82
			c7.1,11.58,9.5,25.66,4.33,37.3c-4.18,9.41-5.91,13.75,4.26,18.19c3.63,1.58,4.52,5.68,5.06,9.54
			c2.03,14.48,9.67,12.78,18.88,6.47c3.1-2.13,4.89-8.43,10.23-3.83c3.15,2.72,3.69,6.39,1.22,10.11c-1.53,2.31-3.14,5.08,0.17,6.76
			c4.11,2.09,5.3-1.75,6.98-4.39c1.72-2.7,4.1-5.06,5.43-7.91c2.1-4.5,4.96-7.19,9.99-5.36c5.29,1.92,2.76,6.31,2.11,9.61
			c-1.18,6.03-0.69,10.65,8.35,11.97c-7.1-13.93,1.3-20.67,12.09-20.81C990.78,1336.9,982.26,1348.12,985.87,1355.32z"/>
	</g>
	<g>
		<g>
			<path class="st4" d="M1090.86,1205.2c-40.49-57.18-81.01-114.35-121.42-171.59c-2.89-4.09-8.66-8.13-3.03-14
				c5.49-5.73,10-0.78,14.21,2.15c29.44,20.48,59.03,40.78,88,61.91c9.73,7.1,15.51,6.58,23.79-2.64
				c74.77-83.19,157.13-157.74,251.73-218.11c26.41-16.85,53.73-32.06,82.24-45.06c4.78-2.18,10.75-7.64,14.98,0.55
				c3.73,7.21-3.4,9.35-7.36,12.28c-136.38,100.92-244.9,226.89-333.59,370.71c-0.87,1.41-1.4,3.02-2.09,4.54
				C1095.85,1205.69,1093.35,1205.44,1090.86,1205.2z"/>
		</g>
	</g>
	<path id="SVGID_x5F_1_x5F_" class="st5" d="M1628.01,1065.25c-36.19,356.13-354.24,615.5-710.37,579.31
		c-356.13-36.19-615.5-354.24-579.31-710.37s354.24-615.5,710.37-579.31S1664.2,709.11,1628.01,1065.25z"/>
	<text class="st1 st6 st7">	<textPath  xlink:href="#SVGID_x5F_1_x5F_" startOffset="66.6667%">
SINDH HEALTHCARE COMMISSION	</textPath>
</text>
	<path id="SVGID_x5F_2_x5F_" class="st5" d="M1713.27,663.6C1556.16,258.13,1100.09,56.79,694.62,213.9S87.8,827.08,244.92,1232.55
		s613.18,606.81,1018.65,449.7S1870.38,1069.08,1713.27,663.6z"/>
	<text class="st1 st6 st8">	<textPath  xlink:href="#SVGID_x5F_2_x5F_" startOffset="-66.032%">
QUALITY CARE FOR ALL	</textPath>
</text>
	<circle class="st4" cx="276.35" cy="1037.99" r="50.96"/>
	<circle class="st4" cx="1680.25" cy="1037.99" r="50.96"/>
</g>
</svg>
